<svg xmlns="http://www.w3.org/2000/svg" xmlns:xlink="http://www.w3.org/1999/xlink" width="64" zoomAndPan="magnify" viewBox="0 0 48 48" height="64" preserveAspectRatio="xMidYMid meet" version="1.0"><defs><clipPath id="0114b701aa"><path d="M 35 20 L 47.507812 20 L 47.507812 32 L 35 32 Z M 35 20 " clip-rule="nonzero"/></clipPath><clipPath id="694ce7a937"><path d="M 0.488281 7 L 42 7 L 42 40.027344 L 0.488281 40.027344 Z M 0.488281 7 " clip-rule="nonzero"/></clipPath></defs><g clip-path="url(#0114b701aa)"><path fill="#1bbeb0" d="M 47.511719 24.535156 C 47.511719 22.574219 46.246094 20.960938 44.328125 20.960938 C 43.371094 20.960938 42.195312 22.007812 41.582031 22.660156 C 40.972656 22.007812 39.882812 20.960938 38.925781 20.960938 C 37.007812 20.960938 35.65625 22.574219 35.65625 24.535156 C 35.65625 25.535156 36.050781 26.40625 36.660156 27.0625 L 41.582031 31.984375 L 46.507812 27.0625 C 47.117188 26.40625 47.511719 25.535156 47.511719 24.535156 Z M 47.511719 24.535156 " fill-opacity="1" fill-rule="nonzero"/></g><g clip-path="url(#694ce7a937)"><path fill="#1bbeb0" d="M 26.59375 40.003906 C 26.15625 39.960938 25.851562 39.699219 25.808594 39.351562 L 23.324219 24.796875 L 19.535156 31.8125 C 19.359375 32.117188 19.011719 32.289062 18.660156 32.203125 C 18.3125 32.160156 18.050781 31.855469 18.007812 31.507812 L 16.394531 20.261719 L 13.476562 26.84375 C 13.34375 27.148438 13.039062 27.324219 12.734375 27.324219 L 1.316406 27.324219 C 0.882812 27.324219 0.488281 26.972656 0.488281 26.496094 C 0.488281 26.058594 0.839844 25.667969 1.316406 25.667969 L 12.210938 25.667969 L 16.089844 16.996094 C 16.222656 16.644531 16.570312 16.472656 16.917969 16.515625 C 17.265625 16.558594 17.574219 16.863281 17.617188 17.210938 L 19.273438 28.804688 L 23.019531 21.875 C 23.195312 21.570312 23.5 21.394531 23.847656 21.484375 C 24.195312 21.527344 24.457031 21.789062 24.5 22.136719 L 26.8125 35.601562 L 35.222656 7.625 C 35.308594 7.320312 35.613281 7.058594 35.917969 7.058594 C 36.265625 7.015625 36.570312 7.234375 36.703125 7.496094 L 41.148438 16.691406 C 41.320312 17.082031 41.191406 17.5625 40.753906 17.777344 C 40.363281 17.953125 39.882812 17.824219 39.667969 17.386719 L 36.136719 10.066406 L 27.332031 39.351562 C 27.246094 39.785156 26.941406 40.003906 26.59375 40.003906 Z M 26.59375 40.003906 " fill-opacity="1" fill-rule="nonzero"/></g></svg>